<?xml version="1.0" encoding="iso-8859-1"?>
<!-- Generator: Adobe Illustrator 19.0.0, SVG Export Plug-In . SVG Version: 6.00 Build 0)  -->
<svg version="1.1" id="Capa_1" xmlns="http://www.w3.org/2000/svg" xmlns:xlink="http://www.w3.org/1999/xlink" x="0px" y="0px"
	 viewBox="0 0 495.968 495.968" style="enable-background:new 0 0 495.968 495.968;" xml:space="preserve">
<g>
	<g>
		<g>
			<path d="M247.984,103.968c13.232,0,24-10.768,24-24s-10.768-24-24-24s-24,10.768-24,24S234.752,103.968,247.984,103.968z
				 M247.984,71.968c4.416,0,8,3.592,8,8s-3.584,8-8,8c-4.416,0-8-3.592-8-8S243.568,71.968,247.984,71.968z"/>
			<path d="M247.984,271.968c-8.824,0-16-7.176-16-16h-16c0,17.648,14.352,32,32,32s32-14.352,32-32h-16
				C263.984,264.792,256.808,271.968,247.984,271.968z"/>
			<path d="M445.616,263.992c1.528-5.08,2.368-10.456,2.368-16.024c0-18.712-9.528-36.128-24.96-46.464
				c0.624-3.088,0.96-6.272,0.96-9.536c0-21.424-14.112-39.608-33.536-45.76c-5.832-26.48-28.128-46.512-54.912-49.728
				c0.272-2.816,0.448-5.648,0.448-8.512c0-24.992-10.688-48.896-29.32-65.576C288.056,5.728,263.04-2.2,237.976,0.528
				c-39.312,4.352-71.76,35.888-77.136,75c-0.976,7.08-1.032,14.08-0.384,20.944c-26.792,3.208-49.112,23.24-54.944,49.736
				c-19.416,6.152-33.528,24.336-33.528,45.76c0,3.264,0.336,6.448,0.96,9.536c-15.432,10.336-24.96,27.752-24.96,46.464
				c0,5.568,0.84,10.944,2.368,16.024c-11.744,13.136-18.368,30.184-18.368,47.976c0,27.888,15.816,52.816,40.68,64.8
				c3.136,22.648,18.36,41.904,39.488,50.44c1.704,38.192,33.224,68.76,71.832,68.76c27.872,0,52.04-15.944,64-39.16
				c11.96,23.216,36.128,39.16,64,39.16c38.608,0,70.128-30.568,71.832-68.76c21.128-8.536,36.352-27.792,39.488-50.44
				c24.864-11.984,40.68-36.912,40.68-64.8C463.984,294.176,457.36,277.128,445.616,263.992z M176.688,77.704
				c4.4-31.952,30.912-57.72,63.056-61.272c20.832-2.32,40.8,4.04,56.248,17.88c15.248,13.656,23.992,33.208,23.992,53.656
				c0,16.12-5.208,31.344-15.072,44.04c-14.456,18.632-24.224,38.976-29.16,59.96h-19.768v-72h-16v72h-19.456
				c-4.688-21.536-14.104-41.48-27.84-57.928C179.536,118.304,173.856,98.304,176.688,77.704z M223.12,207.968h49.832
				c-0.576,5.04-0.968,10.096-0.968,15.168v0.832h-48v-0.856C223.984,218.008,223.632,212.968,223.12,207.968z M412.824,363.912
				l-4.704,1.888l-0.296,5.056c-1,16.768-10.808,31.528-25.208,39.304c-6.456-33.112-35.656-58.192-70.632-58.192v16
				c30.872,0,56,25.128,56,56s-25.128,56-56,56s-56-25.128-56-56v-88h-16v88c0,30.872-25.128,56-56,56s-56-25.128-56-56
				s25.128-56,56-56v-16c-34.976,0-64.176,25.08-70.64,58.192c-14.392-7.776-24.208-22.536-25.208-39.304L87.84,365.8l-4.704-1.888
				c-21.352-8.584-35.152-28.976-35.152-51.944c0-11.544,3.624-22.68,10.112-31.992c10.136,14.48,26.912,23.992,45.888,23.992
				c13.808,0,27.064-5.064,37.344-14.264l-10.672-11.92c-7.336,6.568-16.816,10.184-26.672,10.184c-22.056,0-40-17.944-40-40
				c0-12.192,5.648-23.632,15-31.168c8.432,13.864,23.624,23.168,41,23.168v-16c-17.648,0-32-14.352-32-32s14.352-32,32-32
				s32,14.352,32,32h16c0-25.544-20.072-46.432-45.264-47.864c6.12-17.392,22.048-29.888,40.672-31.712
				c3.328,11.544,9.04,22.368,17.008,31.904c17.784,21.288,27.584,49.28,27.584,78.816v16.856h80v-16.832
				c0-28.272,10.224-56.384,29.568-81.312c6.92-8.912,11.896-18.872,14.944-29.44c18.656,1.792,34.616,14.304,40.744,31.72
				c-25.184,1.432-45.256,22.32-45.256,47.864h16c0-17.648,14.352-32,32-32s32,14.352,32,32s-14.352,32-32,32v16
				c17.376,0,32.568-9.304,41-23.168c9.352,7.536,15,18.976,15,31.168c0,22.056-17.944,40-40,40
				c-9.856,0-19.336-3.616-26.672-10.184l-10.672,11.92c10.28,9.2,23.536,14.264,37.344,14.264c18.976,0,35.752-9.512,45.888-23.992
				c6.488,9.312,10.112,20.448,10.112,31.992C447.984,334.936,434.184,355.328,412.824,363.912z"/>
			<rect x="239.984" y="303.968" width="16" height="16"/>
			<rect x="383.984" y="327.968" width="16" height="16"/>
			<rect x="143.984" y="239.968" width="16" height="16"/>
			<rect x="175.984" y="415.968" width="16" height="16"/>
			<rect x="287.984" y="287.968" width="16" height="16"/>
			<rect x="359.984" y="191.968" width="16" height="16"/>
			<rect x="95.984" y="335.968" width="16" height="16"/>
			<rect x="311.984" y="391.968" width="16" height="16"/>
		</g>
	</g>
</g>
<g>
</g>
<g>
</g>
<g>
</g>
<g>
</g>
<g>
</g>
<g>
</g>
<g>
</g>
<g>
</g>
<g>
</g>
<g>
</g>
<g>
</g>
<g>
</g>
<g>
</g>
<g>
</g>
<g>
</g>
</svg>
